# xmcd
#
# Track frame offsets: 
#        150
#        11955
#        23682
#        36312
#        55080
#        71520
#        82860
#        98302
#        112835
#        129532
#        147737
#        163147
#        178812
#        199112
#        215545
#        229275
#        251117
#        273660
#        292970
#        302880
#
# Disc length: 4173 seconds
#
# Revision: 3
# Processed by: cddbd v1.5.2PL0 Copyright (c) Steve Scherf et al.
# Submitted via: ExactAudioCopy v0.99pb4
#
DISCID=25104b14
DTITLE=Various Artist - 100 Instrumental-Hits [CD5)
DYEAR=2008
DGENRE=Instrumental
TTITLE0=Carlten and Orchester/Words
TTITLE1=Hotcha Mundharmonika Trio/Sweet Georgia Brown
TTITLE2=Carlten and Orchester/Take My Breath Away
TTITLE3=Tilo Matelli Mit Seinem Orchester/What Is Life
TTITLE4=Carlten and Orchester/Lady In Red
TTITLE5=Carlten and Orchester/Wonderful Tonight
TTITLE6=Farad and Conte and Durham/Yesterday Once More
TTITLE7=Carlten and Orchester/Reality
TTITLE8=Magic Panpipe/Say You, Say Me
TTITLE9=Carlten and Orchester/Sealed With A Kiss
TTITLE10=Magic Panpipe/It Must Have Been Love
TTITLE11=Magic Panpipe/To All The Girls I've Loved Before
TTITLE12=Orchester James Kay/Magic Fly
TTITLE13=Tilo Matelli Mit Seinem Orchester/I Am, I Said
TTITLE14=Orchester King Royal/Children Of The Revolution
TTITLE15=Orchester King Royal/Popcorn
TTITLE16=Carlten and Orchester/What's Another Year
TTITLE17=Tilo Matelli Mit Seinem Orchester/I Did What I Did For Maria
TTITLE18=Carlten and Orchester/When I Need You
TTITLE19=Martin Schworm/Thank You For The Music
EXTD=YEAR: 1999
EXTT0=
EXTT1=
EXTT2=
EXTT3=
EXTT4=
EXTT5=
EXTT6=
EXTT7=
EXTT8=
EXTT9=
EXTT10=
EXTT11=
EXTT12=
EXTT13=
EXTT14=
EXTT15=
EXTT16=
EXTT17=
EXTT18=
EXTT19=
PLAYORDER=
